<?xml version="1.0" encoding="UTF-8" standalone="no"?>
<svg xmlns:xlink="http://www.w3.org/1999/xlink" height="127.0px" width="136.75px" xmlns="http://www.w3.org/2000/svg">
  <g transform="matrix(1.0, 0.0, 0.0, 1.0, -52.0, -110.0)">
    <path d="M186.5 110.5 Q188.35 141.1 188.25 170.8 188.1 230.15 178.5 225.5 166.95 219.9 149.55 217.15 L134.5 215.5 116.35 217.45 Q96.8 220.3 89.5 224.5 75.45 232.65 64.3 235.4 L58.05 236.45 56.0 236.5 52.5 124.5 186.5 110.5" fill="#000000" fill-rule="evenodd" stroke="none"/>
    <path d="M186.5 110.5 L52.5 124.5 56.0 236.5 58.05 236.45 64.3 235.4 Q75.45 232.65 89.5 224.5 96.8 220.3 116.35 217.45 L134.5 215.5 149.55 217.15 Q166.95 219.9 178.5 225.5 188.1 230.15 188.25 170.8 188.35 141.1 186.5 110.5 M56.0 236.5 L55.5 236.5" fill="none" stroke="#000000" stroke-linecap="round" stroke-linejoin="round" stroke-width="1.0"/>
  </g>
</svg>
