<?xml version="1.0" encoding="UTF-8" standalone="no"?>
<svg xmlns:xlink="http://www.w3.org/1999/xlink" height="566.1px" width="807.1px" xmlns="http://www.w3.org/2000/svg">
  <g transform="matrix(1.0, 0.0, 0.0, 1.0, -126.95, -21.95)">
    <path d="M737.05 22.0 L934.0 115.0 695.0 322.0 609.0 398.0 618.0 402.0 622.0 415.0 621.0 427.0 619.0 444.0 607.05 472.0 623.05 543.95 520.0 588.0 338.0 546.95 239.0 441.95 127.0 146.0 300.0 36.0 737.05 22.0" fill="#000000" fill-rule="evenodd" stroke="none"/>
    <path d="M737.05 22.0 L300.0 36.0 127.0 146.0 239.0 441.95 338.0 546.95 520.0 588.0 623.05 543.95 607.05 472.0 619.0 444.0 621.0 427.0 622.0 415.0 618.0 402.0 609.0 398.0 695.0 322.0 934.0 115.0 737.05 22.0 Z" fill="none" stroke="#000000" stroke-linecap="round" stroke-linejoin="round" stroke-width="0.1"/>
  </g>
</svg>
