<?xml version="1.0" encoding="UTF-8" standalone="no"?>
<svg xmlns:xlink="http://www.w3.org/1999/xlink" height="722.1px" width="1957.1px" xmlns="http://www.w3.org/2000/svg">
  <g transform="matrix(1.0, 0.0, 0.0, 1.0, 573.05, 128.05)">
    <path d="M300.0 -114.0 L737.0 -128.0 1384.0 186.0 1195.0 372.0 1109.0 448.0 1118.0 452.0 1122.0 465.0 1121.0 477.0 1119.0 494.0 1107.0 522.0 1123.0 594.0 -180.0 588.0 -362.0 547.0 -461.0 442.0 -573.0 -4.0 300.0 -114.0" fill="#000000" fill-rule="evenodd" stroke="none"/>
    <path d="M300.0 -114.0 L-573.0 -4.0 -461.0 442.0 -362.0 547.0 -180.0 588.0 1123.0 594.0 1107.0 522.0 1119.0 494.0 1121.0 477.0 1122.0 465.0 1118.0 452.0 1109.0 448.0 1195.0 372.0 1384.0 186.0 737.0 -128.0 300.0 -114.0 Z" fill="none" stroke="#000000" stroke-linecap="round" stroke-linejoin="round" stroke-width="0.1"/>
  </g>
</svg>
