<?xml version="1.0" encoding="UTF-8" standalone="no"?>
<svg xmlns:xlink="http://www.w3.org/1999/xlink" height="287.0px" width="960.0px" xmlns="http://www.w3.org/2000/svg">
  <g transform="matrix(1.0, 0.0, 0.0, 1.0, -17.0, -9.0)">
    <path d="M976.5 11.5 L976.5 157.5 279.5 295.5 244.5 270.5 220.5 240.5 210.5 240.5 197.5 236.5 Q189.0 232.25 178.65 227.75 157.9 218.75 148.5 217.5 L128.4 215.75 119.5 215.5 127.5 170.5 146.5 173.5 147.5 155.5 Q138.5 154.5 125.25 151.9 98.8 146.65 77.5 138.5 50.05 129.15 31.0 118.4 L20.7 111.9 17.5 109.5 18.5 11.5 21.5 9.5 974.5 9.5 976.5 11.5" fill="#000000" fill-rule="evenodd" stroke="none"/>
    <path d="M53.65 236.0 L53.15 236.0" fill="none" stroke="#000000" stroke-linecap="round" stroke-linejoin="round" stroke-width="1.0"/>
    <path d="M976.5 11.5 L976.5 157.5 279.5 295.5 244.5 270.5 220.5 240.5 210.5 240.5 197.5 236.5 Q189.0 232.25 178.65 227.75 157.9 218.75 148.5 217.5 L128.4 215.75 119.5 215.5 127.5 170.5 146.5 173.5 147.5 155.5 Q138.5 154.5 125.25 151.9 98.8 146.65 77.5 138.5 50.05 129.15 31.0 118.4 L20.7 111.9 17.5 109.5 18.5 11.5 21.5 9.5 974.5 9.5 976.5 11.5" fill="none" stroke="#333333" stroke-linecap="round" stroke-linejoin="round" stroke-width="1.0"/>
  </g>
</svg>
